<svg viewBox="0 0 24 24" xmlns="http://www.w3.org/2000/svg"><path d="m12 2c-5.514 0-10 4.486-10 10s4.486 10 10 10 10-4.486 10-10-4.486-10-10-10zm4.757 11.522c-0.343 1.067-1.09 1.976-2.027 2.592-1.658 1.092-3.14 1.036-4.423 0.572l-1.877 1.877c-0.224 0.224-0.58 0.274-0.844 0.098-0.89-0.592-1.654-1.356-2.246-2.246-0.175-0.264-0.126-0.62 0.098-0.844l1.877-1.877c-0.463-1.278-0.52-2.752 0.555-4.402 0.616-0.945 1.529-1.701 2.603-2.048 0.887-0.286 1.737-0.306 2.521-0.142 0.381 0.08 0.511 0.564 0.235 0.84l-1.643 1.643c-0.781 0.781-0.781 2.047 0 2.828s2.047 0.781 2.828 0l1.641-1.641c0.275-0.276 0.762-0.148 0.841 0.233 0.164 0.784 0.145 1.632-0.139 2.517z"/></svg>