<svg version="1.1" viewBox="0 0 48 48" xmlns="http://www.w3.org/2000/svg"><path d="m42 35c0 2.2109-1.7891 3-4 3h-28c-2.2109 0-4-0.78906-4-3l3-12c0.21875-2.0938 1.7891-4 4-4h22c2.2109 0 3.6875 1.75 4 4z" fill="#455A64"/><path d="m42 27c0 2.2109-1.7891 3-4 3h-28c-2.2109 0-4-0.78906-4-3l3-12c0.21875-2.0938 1.7891-4 4-4h22c2.2109 0 3.6875 1.75 4 4z" fill="#455A64"/><path d="m42 19c0 2.2109-1.7891 3-4 3h-28c-2.2109 0-4-0.78906-4-3l3-12c0.60938-1.6602 1.7891-3 4-3h22c2.2109 0 3.1992 1.0859 4 3z" fill="#455A64"/><path d="m38 22h-28c-2.2109 0-4-0.78906-4-3v6c0 2.2109 1.7891 3 4 3h28c2.2109 0 4-0.78906 4-3v-6c0 2.2109-1.7891 3-4 3z" fill="#78909C"/><path d="m38 30h-28c-2.2109 0-4-0.78906-4-3v6c0 2.2109 1.7891 3 4 3h28c2.2109 0 4-0.78906 4-3v-6c0 2.2109-1.7891 3-4 3z" fill="#78909C"/><path d="m38 38h-28c-2.2109 0-4-0.78906-4-3v6c0 2.2109 1.7891 3 4 3h28c2.2109 0 4-0.78906 4-3v-6c0 2.2109-1.7891 3-4 3z" fill="#78909C"/><path d="m37 41c0 1.1055-0.89453 2-2 2s-2-0.89453-2-2 0.89453-2 2-2 2 0.89453 2 2z" fill="#64DD17"/><path d="m37 33c0 1.1055-0.89453 2-2 2s-2-0.89453-2-2 0.89453-2 2-2 2 0.89453 2 2z" fill="#64DD17"/><path d="m37 25c0 1.1055-0.89453 2-2 2s-2-0.89453-2-2 0.89453-2 2-2 2 0.89453 2 2z" fill="#64DD17"/></svg>