<svg viewBox="0 0 24 24" xmlns="http://www.w3.org/2000/svg"><path d="m6 2c-1.105 0-2 0.895-2 2v2c0 0.552 0.448 1 1 1h14c0.552 0 1-0.448 1-1v-2c0-1.105-0.895-2-2-2h-12zm-1 7c-0.552 0-1 0.448-1 1v4c0 0.552 0.448 1 1 1h8.2266l0.11524-0.20117c0.382-0.661 1.0398-1.1566 1.8008-1.2266 0.258-0.024 0.51086-0.00436 0.75586 0.05664 0.273-0.95 1.148-1.6289 2.166-1.6289h1.8711c0.022 0 0.042453 0.005859 0.064453 0.005859v-2.0059c0-0.552-0.448-1-1-1h-14zm13.064 5c-0.129 0-0.23695 0.096609-0.25195 0.22461l-0.11719 1.0117c-0.484 0.168-0.92078 0.42295-1.3008 0.75195l-0.9375-0.40625c-0.118-0.051-0.25436-0.004578-0.31836 0.10742l-0.9375 1.6211c-0.064 0.112-0.034641 0.25408 0.068359 0.33008l0.80664 0.59766c-0.047 0.248-0.076172 0.50172-0.076172 0.76172s0.028172 0.51277 0.076172 0.75977l-0.80469 0.59961c-0.103 0.077-0.13336 0.21908-0.068359 0.33008l0.93555 1.6211c0.064 0.112 0.20231 0.15647 0.32031 0.10547l0.93555-0.4043c0.379 0.328 0.81678 0.58395 1.3008 0.75195l0.11719 1.0117c0.014 0.129 0.12295 0.22461 0.25195 0.22461h1.8711c0.129 0 0.23695-0.096609 0.25195-0.22461l0.11719-1.0117c0.484-0.168 0.92078-0.42295 1.3008-0.75195l0.9375 0.40625c0.118 0.051 0.25436 0.003578 0.31836-0.10742l0.9375-1.6211c0.064-0.112 0.034641-0.25408-0.068359-0.33008l-0.80664-0.59961c0.048-0.247 0.076172-0.49977 0.076172-0.75977s-0.028172-0.51277-0.076172-0.75977l0.80469-0.59961c0.103-0.077 0.13336-0.21908 0.068359-0.33008l-0.93555-1.6211c-0.064-0.112-0.20231-0.15647-0.32031-0.10547l-0.93555 0.4043c-0.379-0.328-0.81678-0.58395-1.3008-0.75195l-0.11719-1.0117c-0.014-0.129-0.12295-0.22461-0.25195-0.22461h-1.8711zm-13.064 3c-0.552 0-1 0.448-1 1v2c0 1.105 0.895 2 2 2h6.6484l-0.17774-0.31055c-0.509-0.882-0.35983-1.9775 0.32617-2.6895-0.515-0.534-0.72694-1.286-0.58594-2h-7.2109zm14 0.25c0.966 0 1.75 0.783 1.75 1.75 0 0.966-0.784 1.75-1.75 1.75s-1.75-0.784-1.75-1.75c0-0.967 0.784-1.75 1.75-1.75z"/></svg>