<svg viewBox="0 0 48 48" xmlns="http://www.w3.org/2000/svg"><path d="m20 39l-3-3.9-5-2.1-3 5.9v3.1h11v-3zm12.5-2.8c2-2-1.5-8.6-7.8-14.9-6.3-6.2-12.9-9.7-14.9-7.8s1.5 8.6 7.8 14.9c6.3 6.2 12.9 9.7 14.9 7.8z" fill="#64b5f6"/><path d="m11.7 33.6l-1 1.9c2.4 2.3 5.7 4.1 9.2 4.9v-1.4l-0.7-0.9c-2.8-0.9-5.4-2.3-7.3-4.2 0-0.1-0.1-0.2-0.2-0.3z" fill="#1e88e5"/><path d="m34.9 14.1c-0.3 0-0.5-0.1-0.7-0.3-0.4-0.4-0.4-1 0-1.4l7.1-7.1c0.4-0.4 1-0.4 1.4 0s0.4 1 0 1.4l-7.1 7.1c-0.2 0.2-0.4 0.3-0.7 0.3z" fill="#ff3d00"/><path d="m42 14.1c-0.3 0-0.5-0.1-0.7-0.3l-7.1-7.1c-0.4-0.4-0.4-1 0-1.4s1-0.4 1.4 0l7.1 7.1c0.4 0.4 0.4 1 0 1.4-0.2 0.2-0.4 0.3-0.7 0.3z" fill="#ff3d00"/><path d="m17.6 28.4c-6.2-6.2-9.7-12.9-7.8-14.8-5 5-2.8 15.4 2.3 20.4 5 5 15.4 7.2 20.4 2.3-2 1.8-8.6-1.7-14.9-7.9z" fill="#bbdefb"/><path d="m13 23.1l11.5-1.5-1.5 11.5c0.6 0.5 1.3 0.9 1.9 1.3l1.5-11.2c-0.5-0.6-1.1-1.2-1.7-1.8s-1.1-1.1-1.7-1.6l-11.3 1.5c0.4 0.5 0.8 1.1 1.3 1.8z" fill="#546e7a"/><path d="m29 20c0 1.7-1.3 3-3 3s-3-1.3-3-3 1.3-3 3-3 3 1.3 3 3z" fill="#0d47a1"/></svg>